ffmpeg started on 2025-04-30 at 18:05:53
Report written to "D:\Convert\FFMetrics\reports\psnr_report-6.txt"
Log level: 32
Command line:
ffmpeg -hide_banner -nostdin -i "G:\\\xc0\xed\xe8\xec\xe5\\\xce\xed\xe3\xee\xe8\xed\xe3\xe8\\!_35_\xcb\xe5\xf2\xee_2024\\JamClub\\\xcc\xe5\xf7 \xe8 \xe6\xe5\xe7\xeb \xc2\xe8\xf1\xf2\xee\xf0\xe8\xe8\\JamClub_Tsue_to_Tsurugi_no_Wistoria_05_1080p_HEVC.mkv" -i "G:\\\xc0\xed\xe8\xec\xe5\\\xce\xed\xe3\xee\xe8\xed\xe3\xe8\\!_35_\xcb\xe5\xf2\xee_2024\\JamClub\\\xcc\xe5\xf7 \xe8 \xe6\xe5\xe7\xeb \xc2\xe8\xf1\xf2\xee\xf0\xe8\xe8\\JamClub_Tsue_to_Tsurugi_no_Wistoria_05_1080p.mp4" -lavfi "[0:v]settb=AVTB,setpts=PTS-STARTPTS,format=pix_fmts=yuv420p10,fps=24000/1001,scale=1920:1080:flags=bicubic[main];[1:v]settb=AVTB,setpts=PTS-STARTPTS,format=pix_fmts=yuv420p,fps=24000/1001,scale=1920:1080:flags=bicubic[ref];[main][ref]psnr=eof_action=endall:stats_file='D\\:/Convert/FFMetrics/logs/psnr_logfile-6.txt'" -f null -
Input #0, matroska,webm, from 'G:\Аниме\Онгоинги\!_35_Лето_2024\JamClub\Меч и жезл Вистории\JamClub_Tsue_to_Tsurugi_no_Wistoria_05_1080p_HEVC.mkv':
  Metadata:
    COMPATIBLE_BRANDS: isomiso2avc1mp41
    MAJOR_BRAND     : isom
    MINOR_VERSION   : 512
    ENCODER         : Lavf61.7.100
  Duration: 00:24:08.28, start: -0.001000, bitrate: 2004 kb/s
  Stream #0:0: Video: hevc (Main 10), yuv420p10le(tv, bt709, progressive), 1920x1080 [SAR 1:1 DAR 16:9], 23.98 fps, 23.98 tbr, 1k tbn (default)
      Metadata:
        HANDLER_NAME    : VideoHandler
        VENDOR_ID       : [0][0][0][0]
        ENCODER         : Lavc61.19.100 libx265
        BPS             : 1807449
        DURATION        : 00:24:08.196708333
        NUMBER_OF_FRAMES: 34722
        NUMBER_OF_BYTES : 327192724
        _STATISTICS_WRITING_APP: mkvpropedit v66.0.0 ('Josie') 64-bit
        _STATISTICS_WRITING_DATE_UTC: 2025-04-29 12:11:17
        _STATISTICS_TAGS: BPS DURATION NUMBER_OF_FRAMES NUMBER_OF_BYTES
  Stream #0:1(eng): Audio: aac (LC), 48000 Hz, stereo, fltp (default)
      Metadata:
        HANDLER_NAME    : SoundHandler
        VENDOR_ID       : [0][0][0][0]
        ENCODER         : Lavc61.19.100 aac
        BPS             : 193519
        DURATION        : 00:24:08.237000000
        NUMBER_OF_FRAMES: 67887
        NUMBER_OF_BYTES : 35032680
        _STATISTICS_WRITING_APP: mkvpropedit v66.0.0 ('Josie') 64-bit
        _STATISTICS_WRITING_DATE_UTC: 2025-04-29 12:11:17
        _STATISTICS_TAGS: BPS DURATION NUMBER_OF_FRAMES NUMBER_OF_BYTES
Input #1, mov,mp4,m4a,3gp,3g2,mj2, from 'G:\Аниме\Онгоинги\!_35_Лето_2024\JamClub\Меч и жезл Вистории\JamClub_Tsue_to_Tsurugi_no_Wistoria_05_1080p.mp4':
  Metadata:
    major_brand     : isom
    minor_version   : 512
    compatible_brands: isomiso2avc1mp41
    encoder         : Lavf60.16.100
  Duration: 00:24:08.26, start: 0.000000, bitrate: 5183 kb/s
  Stream #1:0[0x1](und): Video: h264 (High) (avc1 / 0x31637661), yuv420p(progressive), 1920x1080 [SAR 1:1 DAR 16:9], 4985 kb/s, 23.98 fps, 23.98 tbr, 90k tbn (default)
      Metadata:
        handler_name    : VideoHandler
        vendor_id       : [0][0][0][0]
  Stream #1:1[0x2](eng): Audio: aac (LC) (mp4a / 0x6134706D), 48000 Hz, stereo, fltp, 191 kb/s (default)
      Metadata:
        handler_name    : SoundHandler
        vendor_id       : [0][0][0][0]
Stream mapping:
  Stream #0:0 (hevc) -> settb:default
  Stream #1:0 (h264) -> settb:default
  psnr:default -> Stream #0:0 (wrapped_avframe)
  Stream #0:1 -> #0:1 (aac (native) -> pcm_s16le (native))
Output #0, null, to 'pipe:':
  Metadata:
    COMPATIBLE_BRANDS: isomiso2avc1mp41
    MAJOR_BRAND     : isom
    MINOR_VERSION   : 512
    encoder         : Lavf61.7.100
  Stream #0:0: Video: wrapped_avframe, yuv420p10le(tv, bt709, progressive), 1920x1080 [SAR 1:1 DAR 16:9], q=2-31, 200 kb/s, 23.98 fps, 23.98 tbn
      Metadata:
        encoder         : Lavc61.19.100 wrapped_avframe
  Stream #0:1(eng): Audio: pcm_s16le, 48000 Hz, stereo, s16, 1536 kb/s (default)
      Metadata:
        HANDLER_NAME    : SoundHandler
        VENDOR_ID       : [0][0][0][0]
        _STATISTICS_TAGS: BPS DURATION NUMBER_OF_FRAMES NUMBER_OF_BYTES
        BPS             : 193519
        DURATION        : 00:24:08.237000000
        NUMBER_OF_FRAMES: 67887
        NUMBER_OF_BYTES : 35032680
        _STATISTICS_WRITING_APP: mkvpropedit v66.0.0 ('Josie') 64-bit
        _STATISTICS_WRITING_DATE_UTC: 2025-04-29 12:11:17
        encoder         : Lavc61.19.100 pcm_s16le
frame=  113 fps=0.0 q=-0.0 size=N/A time=00:00:04.71 bitrate=N/A speed=9.13x    frame=  269 fps=262 q=-0.0 size=N/A time=00:00:11.21 bitrate=N/A speed=10.9x    frame=  459 fps=300 q=-0.0 size=N/A time=00:00:19.14 bitrate=N/A speed=12.5x    frame=  703 fps=342 q=-0.0 size=N/A time=00:00:29.32 bitrate=N/A speed=14.3x    frame=  941 fps=365 q=-0.0 size=N/A time=00:00:39.24 bitrate=N/A speed=15.2x    frame= 1121 fps=361 q=-0.0 size=N/A time=00:00:46.75 bitrate=N/A speed=15.1x    frame= 1257 fps=348 q=-0.0 size=N/A time=00:00:52.42 bitrate=N/A speed=14.5x    frame= 1492 fps=361 q=-0.0 size=N/A time=00:01:02.22 bitrate=N/A speed=15.1x    frame= 1669 fps=358 q=-0.0 size=N/A time=00:01:09.61 bitrate=N/A speed=14.9x    frame= 1833 fps=354 q=-0.0 size=N/A time=00:01:16.45 bitrate=N/A speed=14.8x    frame= 2038 fps=358 q=-0.0 size=N/A time=00:01:25.00 bitrate=N/A speed=14.9x    frame= 2276 fps=367 q=-0.0 size=N/A time=00:01:34.92 bitrate=N/A speed=15.3x    frame= 2529 fps=376 q=-0.0 size=N/A time=00:01:45.48 bitrate=N/A speed=15.7x    frame= 2797 fps=386 q=-0.0 size=N/A time=00:01:56.65 bitrate=N/A speed=16.1x    frame= 3032 fps=391 q=-0.0 size=N/A time=00:02:06.45 bitrate=N/A speed=16.3x    frame= 3263 fps=395 q=-0.0 size=N/A time=00:02:16.09 bitrate=N/A speed=16.5x    frame= 3533 fps=402 q=-0.0 size=N/A time=00:02:27.35 bitrate=N/A speed=16.8x    frame= 3787 fps=407 q=-0.0 size=N/A time=00:02:37.94 bitrate=N/A speed=  17x    frame= 4046 fps=412 q=-0.0 size=N/A time=00:02:48.75 bitrate=N/A speed=17.2x    frame= 4271 fps=413 q=-0.0 size=N/A time=00:02:58.13 bitrate=N/A speed=17.2x    frame= 4472 fps=412 q=-0.0 size=N/A time=00:03:06.51 bitrate=N/A speed=17.2x    frame= 4748 fps=417 q=-0.0 size=N/A time=00:03:18.03 bitrate=N/A speed=17.4x    frame= 5002 fps=421 q=-0.0 size=N/A time=00:03:28.62 bitrate=N/A speed=17.6x    frame= 5264 fps=425 q=-0.0 size=N/A time=00:03:39.55 bitrate=N/A speed=17.7x    frame= 5501 fps=426 q=-0.0 size=N/A time=00:03:49.43 bitrate=N/A speed=17.8x    frame= 5771 fps=430 q=-0.0 size=N/A time=00:04:00.74 bitrate=N/A speed=17.9x    frame= 6015 fps=431 q=-0.0 size=N/A time=00:04:10.87 bitrate=N/A speed=  18x    frame= 6255 fps=432 q=-0.0 size=N/A time=00:04:20.88 bitrate=N/A speed=  18x    frame= 6486 fps=432 q=-0.0 size=N/A time=00:04:30.52 bitrate=N/A speed=  18x    frame= 6675 fps=430 q=-0.0 size=N/A time=00:04:38.40 bitrate=N/A speed=  18x    frame= 6860 fps=428 q=-0.0 size=N/A time=00:04:46.11 bitrate=N/A speed=17.8x    frame= 7053 fps=426 q=-0.0 size=N/A time=00:04:54.16 bitrate=N/A speed=17.8x    frame= 7222 fps=424 q=-0.0 size=N/A time=00:05:01.21 bitrate=N/A speed=17.7x    frame= 7383 fps=420 q=-0.0 size=N/A time=00:05:07.93 bitrate=N/A speed=17.5x    frame= 7591 fps=420 q=-0.0 size=N/A time=00:05:16.60 bitrate=N/A speed=17.5x    frame= 7769 fps=418 q=-0.0 size=N/A time=00:05:24.03 bitrate=N/A speed=17.4x    frame= 8002 fps=418 q=-0.0 size=N/A time=00:05:33.75 bitrate=N/A speed=17.5x    frame= 8218 fps=419 q=-0.0 size=N/A time=00:05:42.75 bitrate=N/A speed=17.5x    frame= 8354 fps=415 q=-0.0 size=N/A time=00:05:48.43 bitrate=N/A speed=17.3x    frame= 8527 fps=413 q=-0.0 size=N/A time=00:05:55.64 bitrate=N/A speed=17.2x    frame= 8795 fps=415 q=-0.0 size=N/A time=00:06:06.82 bitrate=N/A speed=17.3x    frame= 9040 fps=417 q=-0.0 size=N/A time=00:06:17.04 bitrate=N/A speed=17.4x    frame= 9282 fps=418 q=-0.0 size=N/A time=00:06:27.13 bitrate=N/A speed=17.4x    frame= 9474 fps=417 q=-0.0 size=N/A time=00:06:35.14 bitrate=N/A speed=17.4x    frame= 9695 fps=417 q=-0.0 size=N/A time=00:06:44.36 bitrate=N/A speed=17.4x    frame= 9864 fps=415 q=-0.0 size=N/A time=00:06:51.41 bitrate=N/A speed=17.3x    frame=10050 fps=414 q=-0.0 size=N/A time=00:06:59.16 bitrate=N/A speed=17.3x    frame=10242 fps=413 q=-0.0 size=N/A time=00:07:07.17 bitrate=N/A speed=17.2x    frame=10443 fps=413 q=-0.0 size=N/A time=00:07:15.56 bitrate=N/A speed=17.2x    frame=10628 fps=412 q=-0.0 size=N/A time=00:07:23.27 bitrate=N/A speed=17.2x    frame=10757 fps=409 q=-0.0 size=N/A time=00:07:28.65 bitrate=N/A speed=  17x    frame=10899 fps=406 q=-0.0 size=N/A time=00:07:34.57 bitrate=N/A speed=16.9x    frame=11031 fps=403 q=-0.0 size=N/A time=00:07:40.08 bitrate=N/A speed=16.8x    frame=11134 fps=399 q=-0.0 size=N/A time=00:07:44.38 bitrate=N/A speed=16.7x    frame=11293 fps=398 q=-0.0 size=N/A time=00:07:51.01 bitrate=N/A speed=16.6x    frame=11519 fps=398 q=-0.0 size=N/A time=00:08:00.43 bitrate=N/A speed=16.6x    frame=11729 fps=399 q=-0.0 size=N/A time=00:08:09.19 bitrate=N/A speed=16.6x    frame=11924 fps=398 q=-0.0 size=N/A time=00:08:17.33 bitrate=N/A speed=16.6x    frame=12175 fps=400 q=-0.0 size=N/A time=00:08:27.79 bitrate=N/A speed=16.7x    frame=12408 fps=401 q=-0.0 size=N/A time=00:08:37.51 bitrate=N/A speed=16.7x    frame=12625 fps=401 q=-0.0 size=N/A time=00:08:46.56 bitrate=N/A speed=16.7x    frame=12862 fps=402 q=-0.0 size=N/A time=00:08:56.45 bitrate=N/A speed=16.8x    frame=13085 fps=402 q=-0.0 size=N/A time=00:09:05.75 bitrate=N/A speed=16.8x    frame=13362 fps=404 q=-0.0 size=N/A time=00:09:17.30 bitrate=N/A speed=16.9x    frame=13599 fps=405 q=-0.0 size=N/A time=00:09:27.19 bitrate=N/A speed=16.9x    frame=13836 fps=406 q=-0.0 size=N/A time=00:09:37.07 bitrate=N/A speed=16.9x    frame=14108 fps=408 q=-0.0 size=N/A time=00:09:48.42 bitrate=N/A speed=  17x    frame=14342 fps=409 q=-0.0 size=N/A time=00:09:58.18 bitrate=N/A speed=  17x    frame=14570 fps=409 q=-0.0 size=N/A time=00:10:07.69 bitrate=N/A speed=17.1x    frame=14756 fps=408 q=-0.0 size=N/A time=00:10:15.44 bitrate=N/A speed=  17x    frame=14952 fps=408 q=-0.0 size=N/A time=00:10:23.62 bitrate=N/A speed=  17x    frame=15171 fps=408 q=-0.0 size=N/A time=00:10:32.75 bitrate=N/A speed=  17x    frame=15375 fps=408 q=-0.0 size=N/A time=00:10:41.26 bitrate=N/A speed=  17x    frame=15567 fps=408 q=-0.0 size=N/A time=00:10:49.27 bitrate=N/A speed=  17x    frame=15818 fps=409 q=-0.0 size=N/A time=00:10:59.74 bitrate=N/A speed=  17x    frame=16032 fps=409 q=-0.0 size=N/A time=00:11:08.66 bitrate=N/A speed=  17x    frame=16225 fps=408 q=-0.0 size=N/A time=00:11:16.71 bitrate=N/A speed=  17x    frame=16400 fps=407 q=-0.0 size=N/A time=00:11:24.01 bitrate=N/A speed=  17x    frame=16603 fps=407 q=-0.0 size=N/A time=00:11:32.48 bitrate=N/A speed=  17x    frame=16842 fps=408 q=-0.0 size=N/A time=00:11:42.45 bitrate=N/A speed=  17x    frame=17084 fps=409 q=-0.0 size=N/A time=00:11:52.54 bitrate=N/A speed=  17x    frame=17335 fps=410 q=-0.0 size=N/A time=00:12:03.01 bitrate=N/A speed=17.1x    frame=17563 fps=410 q=-0.0 size=N/A time=00:12:12.52 bitrate=N/A speed=17.1x    frame=17729 fps=409 q=-0.0 size=N/A time=00:12:19.44 bitrate=N/A speed=17.1x    frame=17949 fps=409 q=-0.0 size=N/A time=00:12:28.62 bitrate=N/A speed=17.1x    frame=18139 fps=409 q=-0.0 size=N/A time=00:12:36.54 bitrate=N/A speed=  17x    frame=18333 fps=408 q=-0.0 size=N/A time=00:12:44.63 bitrate=N/A speed=  17x    frame=18515 fps=408 q=-0.0 size=N/A time=00:12:52.22 bitrate=N/A speed=  17x    frame=18734 fps=408 q=-0.0 size=N/A time=00:13:01.36 bitrate=N/A speed=  17x    frame=18967 fps=408 q=-0.0 size=N/A time=00:13:11.08 bitrate=N/A speed=  17x    frame=19201 fps=409 q=-0.0 size=N/A time=00:13:20.84 bitrate=N/A speed=17.1x    frame=19422 fps=409 q=-0.0 size=N/A time=00:13:30.05 bitrate=N/A speed=17.1x    frame=19649 fps=409 q=-0.0 size=N/A time=00:13:39.52 bitrate=N/A speed=17.1x    frame=19840 fps=409 q=-0.0 size=N/A time=00:13:47.49 bitrate=N/A speed=17.1x    frame=20077 fps=409 q=-0.0 size=N/A time=00:13:57.37 bitrate=N/A speed=17.1x    frame=20302 fps=410 q=-0.0 size=N/A time=00:14:06.76 bitrate=N/A speed=17.1x    frame=20462 fps=409 q=-0.0 size=N/A time=00:14:13.43 bitrate=N/A speed=  17x    frame=20673 fps=409 q=-0.0 size=N/A time=00:14:22.23 bitrate=N/A speed=  17x    frame=20916 fps=409 q=-0.0 size=N/A time=00:14:32.37 bitrate=N/A speed=17.1x    frame=21131 fps=409 q=-0.0 size=N/A time=00:14:41.33 bitrate=N/A speed=17.1x    frame=21360 fps=410 q=-0.0 size=N/A time=00:14:50.89 bitrate=N/A speed=17.1x    frame=21557 fps=409 q=-0.0 size=N/A time=00:14:59.10 bitrate=N/A speed=17.1x    frame=21677 fps=408 q=-0.0 size=N/A time=00:15:04.11 bitrate=N/A speed=  17x    frame=21893 fps=408 q=-0.0 size=N/A time=00:15:13.12 bitrate=N/A speed=  17x    frame=22153 fps=409 q=-0.0 size=N/A time=00:15:23.96 bitrate=N/A speed=  17x    frame=22373 fps=409 q=-0.0 size=N/A time=00:15:33.14 bitrate=N/A speed=17.1x    frame=22541 fps=408 q=-0.0 size=N/A time=00:15:40.14 bitrate=N/A speed=  17x    frame=22700 fps=407 q=-0.0 size=N/A time=00:15:46.77 bitrate=N/A speed=  17x    frame=22919 fps=407 q=-0.0 size=N/A time=00:15:55.91 bitrate=N/A speed=  17x    frame=23162 fps=408 q=-0.0 size=N/A time=00:16:06.04 bitrate=N/A speed=  17x    frame=23397 fps=408 q=-0.0 size=N/A time=00:16:15.84 bitrate=N/A speed=  17x    frame=23632 fps=409 q=-0.0 size=N/A time=00:16:25.65 bitrate=N/A speed=  17x    frame=23857 fps=409 q=-0.0 size=N/A time=00:16:35.03 bitrate=N/A speed=17.1x    frame=24099 fps=410 q=-0.0 size=N/A time=00:16:45.12 bitrate=N/A speed=17.1x    frame=24326 fps=410 q=-0.0 size=N/A time=00:16:54.59 bitrate=N/A speed=17.1x    frame=24510 fps=409 q=-0.0 size=N/A time=00:17:02.27 bitrate=N/A speed=17.1x    frame=24718 fps=409 q=-0.0 size=N/A time=00:17:10.94 bitrate=N/A speed=17.1x    frame=24936 fps=409 q=-0.0 size=N/A time=00:17:20.03 bitrate=N/A speed=17.1x    frame=25153 fps=410 q=-0.0 size=N/A time=00:17:29.08 bitrate=N/A speed=17.1x    frame=25430 fps=411 q=-0.0 size=N/A time=00:17:40.64 bitrate=N/A speed=17.1x    frame=25630 fps=410 q=-0.0 size=N/A time=00:17:48.98 bitrate=N/A speed=17.1x    frame=25818 fps=410 q=-0.0 size=N/A time=00:17:56.82 bitrate=N/A speed=17.1x    frame=26037 fps=410 q=-0.0 size=N/A time=00:18:05.95 bitrate=N/A speed=17.1x    frame=26275 fps=411 q=-0.0 size=N/A time=00:18:15.88 bitrate=N/A speed=17.1x    frame=26514 fps=411 q=-0.0 size=N/A time=00:18:25.85 bitrate=N/A speed=17.1x    frame=26779 fps=412 q=-0.0 size=N/A time=00:18:36.90 bitrate=N/A speed=17.2x    frame=27009 fps=412 q=-0.0 size=N/A time=00:18:46.50 bitrate=N/A speed=17.2x    frame=27238 fps=412 q=-0.0 size=N/A time=00:18:56.05 bitrate=N/A speed=17.2x    frame=27461 fps=412 q=-0.0 size=N/A time=00:19:05.35 bitrate=N/A speed=17.2x    frame=27669 fps=412 q=-0.0 size=N/A time=00:19:14.02 bitrate=N/A speed=17.2x    frame=27880 fps=412 q=-0.0 size=N/A time=00:19:22.82 bitrate=N/A speed=17.2x    frame=28097 fps=412 q=-0.0 size=N/A time=00:19:31.87 bitrate=N/A speed=17.2x    frame=28300 fps=412 q=-0.0 size=N/A time=00:19:40.34 bitrate=N/A speed=17.2x    frame=28492 fps=412 q=-0.0 size=N/A time=00:19:48.35 bitrate=N/A speed=17.2x    frame=28686 fps=412 q=-0.0 size=N/A time=00:19:56.44 bitrate=N/A speed=17.2x    frame=28882 fps=412 q=-0.0 size=N/A time=00:20:04.62 bitrate=N/A speed=17.2x    frame=29110 fps=412 q=-0.0 size=N/A time=00:20:14.12 bitrate=N/A speed=17.2x    frame=29333 fps=412 q=-0.0 size=N/A time=00:20:23.43 bitrate=N/A speed=17.2x    frame=29551 fps=412 q=-0.0 size=N/A time=00:20:32.52 bitrate=N/A speed=17.2x    frame=29770 fps=412 q=-0.0 size=N/A time=00:20:41.65 bitrate=N/A speed=17.2x    frame=29988 fps=412 q=-0.0 size=N/A time=00:20:50.74 bitrate=N/A speed=17.2x    frame=30233 fps=413 q=-0.0 size=N/A time=00:21:00.96 bitrate=N/A speed=17.2x    frame=30459 fps=413 q=-0.0 size=N/A time=00:21:10.39 bitrate=N/A speed=17.2x    frame=30676 fps=413 q=-0.0 size=N/A time=00:21:19.44 bitrate=N/A speed=17.2x    frame=30880 fps=413 q=-0.0 size=N/A time=00:21:27.95 bitrate=N/A speed=17.2x    frame=31089 fps=413 q=-0.0 size=N/A time=00:21:36.67 bitrate=N/A speed=17.2x    frame=31306 fps=413 q=-0.0 size=N/A time=00:21:45.72 bitrate=N/A speed=17.2x    frame=31532 fps=413 q=-0.0 size=N/A time=00:21:55.14 bitrate=N/A speed=17.2x    frame=31773 fps=413 q=-0.0 size=N/A time=00:22:05.19 bitrate=N/A speed=17.2x    frame=31983 fps=413 q=-0.0 size=N/A time=00:22:13.95 bitrate=N/A speed=17.2x    frame=32197 fps=413 q=-0.0 size=N/A time=00:22:22.88 bitrate=N/A speed=17.2x    frame=32447 fps=414 q=-0.0 size=N/A time=00:22:33.31 bitrate=N/A speed=17.3x    frame=32689 fps=414 q=-0.0 size=N/A time=00:22:43.40 bitrate=N/A speed=17.3x    frame=32937 fps=414 q=-0.0 size=N/A time=00:22:53.74 bitrate=N/A speed=17.3x    frame=33172 fps=415 q=-0.0 size=N/A time=00:23:03.54 bitrate=N/A speed=17.3x    frame=33400 fps=415 q=-0.0 size=N/A time=00:23:13.05 bitrate=N/A speed=17.3x    frame=33606 fps=415 q=-0.0 size=N/A time=00:23:21.65 bitrate=N/A speed=17.3x    frame=33847 fps=415 q=-0.0 size=N/A time=00:23:31.70 bitrate=N/A speed=17.3x    frame=34054 fps=415 q=-0.0 size=N/A time=00:23:40.33 bitrate=N/A speed=17.3x    frame=34240 fps=415 q=-0.0 size=N/A time=00:23:48.09 bitrate=N/A speed=17.3x    frame=34477 fps=415 q=-0.0 size=N/A time=00:23:57.97 bitrate=N/A speed=17.3x    [Parsed_psnr_10 @ 0000020d6f1ff740] PSNR y:47.396673 u:48.485364 v:49.074126 average:47.807951 min:37.466975 max:inf
[out#0/null @ 0000020d6e924500] video:14920KiB audio:271548KiB subtitle:0KiB other streams:0KiB global headers:0KiB muxing overhead: unknown
frame=34722 fps=415 q=-0.0 Lsize=N/A time=00:24:08.19 bitrate=N/A speed=17.3x    
